<?xml version="1.0" standalone="no"?>
<!DOCTYPE svg PUBLIC "-//W3C//DTD SVG 20010904//EN"
 "http://www.w3.org/TR/2001/REC-SVG-20010904/DTD/svg10.dtd">
<svg version="1.0" xmlns="http://www.w3.org/2000/svg"
 width="2893.000000pt" height="2893.000000pt" viewBox="0 0 2893.000000 2893.000000"
 preserveAspectRatio="xMidYMid meet">

<g transform="translate(0.000000,2893.000000) scale(0.100000,-0.100000)"
fill="#000000" stroke="none">
<path d="M13968 28919 c-381 -13 -762 -41 -1153 -85 -2477 -281 -4840 -1202
-6863 -2676 -880 -641 -1704 -1399 -2423 -2228 -1359 -1567 -2381 -3443 -2953
-5420 -720 -2487 -763 -5127 -125 -7630 451 -1769 1240 -3445 2321 -4928 641
-880 1399 -1704 2228 -2423 1567 -1359 3443 -2381 5420 -2953 2487 -720 5127
-763 7630 -125 1769 451 3445 1240 4928 2321 880 641 1704 1399 2423 2228
1359 1567 2381 3443 2953 5420 720 2487 763 5127 125 7630 -451 1769 -1240
3445 -2321 4928 -641 880 -1399 1704 -2228 2423 -1159 1005 -2487 1827 -3905
2419 -1904 794 -3977 1170 -6057 1099z m-5176 -14306 l3 -7828 110 0 110 0 3
7828 2 7827 75 0 75 0 0 -7830 0 -7830 89 0 c49 0 96 3 105 6 15 6 16 705 16
7831 l0 7824 73 -3 72 -3 0 -7693 c0 -4230 2 -7692 5 -7692 3 0 311 571 684
1268 374 697 1337 2489 2141 3982 804 1493 1618 3008 1811 3367 192 359 353
651 357 650 5 -1 33 -50 64 -109 l55 -106 -505 -939 c-278 -516 -989 -1840
-1582 -2943 -592 -1103 -1516 -2821 -2053 -3817 l-976 -1813 -757 0 -757 0 -7
2718 c-4 1494 -5 4086 -1 5760 4 1674 4 3970 0 5103 l-7 2059 -571 2 -571 3
-3 89 c-2 49 -1 95 2 103 4 11 177 13 971 13 l965 0 2 -7827z m10988 -98 l0
-7925 -859 0 -859 0 -567 1057 c-312 582 -1213 2264 -2003 3737 l-1435 2680
38 74 c21 40 41 70 45 65 14 -15 2489 -4580 2872 -5298 209 -390 383 -712 388
-715 5 -3 179 -320 388 -705 l379 -700 111 -3 c76 -2 112 1 112 8 0 6 -670
1243 -1489 2748 -818 1505 -1750 3220 -2071 3810 l-583 1072 33 63 c18 34 37
68 43 75 7 9 53 -67 169 -280 313 -576 2234 -4114 3142 -5788 l924 -1705 116
-3 c64 -1 116 -1 116 1 0 3 -246 456 -546 1008 -625 1149 -3017 5550 -3483
6408 -171 315 -311 578 -311 584 0 11 431 811 452 839 11 15 37 -28 187 -310
96 -180 580 -1085 1076 -2012 866 -1618 2377 -4441 3094 -5785 189 -352 346
-643 350 -648 4 -4 7 3498 7 7783 l-1 7790 83 0 82 0 0 -7925z m2649 -6910
c92 -22 177 -70 247 -141 281 -282 147 -758 -242 -859 -219 -57 -466 53 -573
254 -45 84 -61 150 -61 246 0 96 16 162 61 246 107 202 343 307 568 254z"/>
</g>
</svg>
